G04 #@! TF.FileFunction,Soldermask,Top*
%FSLAX46Y46*%
G04 Gerber Fmt 4.6, Leading zero omitted, Abs format (unit mm)*
G04 Created by KiCad (PCBNEW 0.201508110901+6083~28~ubuntu14.04.1-product) date mar 18 ago 2015 19:46:52 CEST*
%MOMM*%
G01*
G04 APERTURE LIST*
%ADD10C,0.101600*%
%ADD11C,6.985000*%
%ADD12R,1.778000X1.778000*%
%ADD13C,1.778000*%
%ADD14R,1.651000X1.651000*%
%ADD15C,1.651000*%
%ADD16R,2.032000X2.032000*%
%ADD17C,2.032000*%
%ADD18C,2.286000*%
%ADD19R,1.727200X2.032000*%
%ADD20O,1.727200X2.032000*%
%ADD21O,2.032000X2.540000*%
%ADD22R,1.574800X2.286000*%
%ADD23O,1.574800X2.286000*%
%ADD24C,3.048000*%
%ADD25O,3.810000X2.540000*%
%ADD26O,3.048000X4.064000*%
%ADD27C,3.810000*%
%ADD28O,2.032000X3.556000*%
%ADD29C,2.794000*%
%ADD30C,7.112000*%
%ADD31C,4.572000*%
%ADD32C,2.159000*%
%ADD33C,3.302000*%
%ADD34C,3.175000*%
G04 APERTURE END LIST*
D10*
D11*
X154305000Y-40640000D03*
D12*
X125730000Y-42545000D03*
D13*
X125730000Y-45045000D03*
D14*
X111125000Y-48895000D03*
D15*
X109125000Y-48895000D03*
D16*
X90424000Y-165100000D03*
D17*
X82924000Y-165100000D03*
D12*
X95885000Y-104775000D03*
D13*
X95885000Y-107275000D03*
D12*
X95885000Y-70485000D03*
D13*
X95885000Y-67985000D03*
D17*
X90885000Y-151130000D03*
D16*
X95885000Y-151130000D03*
D17*
X77550000Y-151130000D03*
D16*
X82550000Y-151130000D03*
D14*
X100965000Y-104775000D03*
D15*
X100965000Y-106775000D03*
D14*
X100965000Y-70485000D03*
D15*
X100965000Y-68485000D03*
D17*
X90885000Y-137795000D03*
D16*
X95885000Y-137795000D03*
D18*
X77550000Y-137795000D03*
D16*
X82550000Y-137795000D03*
D14*
X95885000Y-160020000D03*
D15*
X97885000Y-160020000D03*
D14*
X75565000Y-160020000D03*
D15*
X77565000Y-160020000D03*
D12*
X97790000Y-164465000D03*
D13*
X97790000Y-166965000D03*
D12*
X75565000Y-167005000D03*
D13*
X75565000Y-164505000D03*
D14*
X147955000Y-70485000D03*
D15*
X147955000Y-68485000D03*
D14*
X148590000Y-104775000D03*
D15*
X148590000Y-106775000D03*
D12*
X142875000Y-70485000D03*
D13*
X142875000Y-67985000D03*
D12*
X142875000Y-104775000D03*
D13*
X142875000Y-107275000D03*
D12*
X125095000Y-119380000D03*
D13*
X125095000Y-121880000D03*
D12*
X147956340Y-37465000D03*
D13*
X145416340Y-37465000D03*
D12*
X141606340Y-37465000D03*
D13*
X139066340Y-37465000D03*
D12*
X135256340Y-37465000D03*
D13*
X132716340Y-37465000D03*
D17*
X106042460Y-116840000D03*
D16*
X106042460Y-127000000D03*
D12*
X128906340Y-37465000D03*
D13*
X126366340Y-37465000D03*
D19*
X156845000Y-127635000D03*
D20*
X159385000Y-127635000D03*
X161925000Y-127635000D03*
D19*
X156845000Y-119380000D03*
D20*
X159385000Y-119380000D03*
X161925000Y-119380000D03*
D13*
X150495000Y-120015000D03*
X150495000Y-122555000D03*
X150495000Y-117475000D03*
X118110000Y-120650000D03*
X118110000Y-123190000D03*
X118110000Y-118110000D03*
X113030000Y-120650000D03*
X113030000Y-123190000D03*
X113030000Y-118110000D03*
D17*
X148470000Y-43180000D03*
X133470000Y-43180000D03*
X148470000Y-46355000D03*
X133470000Y-46355000D03*
D13*
X93980000Y-93980000D03*
X104140000Y-93980000D03*
X104140000Y-81280000D03*
X93980000Y-81280000D03*
X104140000Y-90805000D03*
X93980000Y-90805000D03*
X93980000Y-84455000D03*
X104140000Y-84455000D03*
X109220000Y-116840000D03*
X109220000Y-127000000D03*
D17*
X103505000Y-152240000D03*
X103505000Y-132240000D03*
X103505000Y-177640000D03*
X103505000Y-157640000D03*
D13*
X149860000Y-49530000D03*
X139700000Y-49530000D03*
X126365000Y-127635000D03*
X136525000Y-127635000D03*
X149860000Y-127635000D03*
X139700000Y-127635000D03*
X126365000Y-49530000D03*
X136525000Y-49530000D03*
X112395000Y-127000000D03*
X122555000Y-127000000D03*
X144145000Y-120650000D03*
X146685000Y-118110000D03*
X146685000Y-123190000D03*
X139065000Y-120650000D03*
X141605000Y-118110000D03*
X141605000Y-123190000D03*
D21*
X118745000Y-49530000D03*
X121285000Y-49530000D03*
X116205000Y-49530000D03*
X99060000Y-97790000D03*
X96520000Y-97790000D03*
X101600000Y-97790000D03*
X99060000Y-77470000D03*
X101600000Y-77470000D03*
X96520000Y-77470000D03*
X146050000Y-77470000D03*
X148590000Y-77470000D03*
X143510000Y-77470000D03*
X146050000Y-97790000D03*
X143510000Y-97790000D03*
X148590000Y-97790000D03*
D22*
X128270000Y-124460000D03*
D23*
X130810000Y-124460000D03*
X133350000Y-124460000D03*
X135890000Y-124460000D03*
X135890000Y-116840000D03*
X133350000Y-116840000D03*
X130810000Y-116840000D03*
X128270000Y-116840000D03*
D24*
X101600000Y-125730000D03*
X101600000Y-118110000D03*
X86360000Y-118110000D03*
X81280000Y-118110000D03*
X76200000Y-118110000D03*
X86360000Y-125730000D03*
X81280000Y-125730000D03*
X76200000Y-125730000D03*
D25*
X131699000Y-156210000D03*
X154305000Y-156210000D03*
X131699000Y-136525000D03*
X154305000Y-136525000D03*
D26*
X165100000Y-48260000D03*
X160401000Y-48260000D03*
X169799000Y-48260000D03*
D27*
X162560000Y-35560000D03*
X167640000Y-35560000D03*
D28*
X85725000Y-41275000D03*
X90848180Y-41275000D03*
X80645000Y-41275000D03*
X75565000Y-41275000D03*
X116205000Y-41275000D03*
X121328180Y-41275000D03*
X111125000Y-41275000D03*
X100965000Y-41275000D03*
X106088180Y-41275000D03*
X95885000Y-41275000D03*
D12*
X123825000Y-87630000D03*
D13*
X121325000Y-87630000D03*
D29*
X111760000Y-153035000D03*
X124968000Y-153035000D03*
X124968000Y-139827000D03*
X111760000Y-139827000D03*
D27*
X145415000Y-165100000D03*
X138430000Y-165100000D03*
X131445000Y-165100000D03*
D30*
X158165800Y-172389800D03*
X118694200Y-172389800D03*
D31*
X133350000Y-74295000D03*
X158750000Y-74295000D03*
X86360000Y-74295000D03*
X111760000Y-74295000D03*
X111760000Y-100965000D03*
X86360000Y-100965000D03*
X158750000Y-100965000D03*
X133350000Y-100965000D03*
D32*
X163195000Y-149860000D03*
X163195000Y-147320000D03*
X163195000Y-142240000D03*
X163195000Y-144780000D03*
D33*
X160020000Y-147955000D03*
X160020000Y-144145000D03*
X160020000Y-140335000D03*
X160020000Y-151765000D03*
D34*
X169545000Y-154305000D03*
X169545000Y-137795000D03*
M02*
