M48
;DRILL file {KiCad 0.201508110901+6083~28~ubuntu14.04.1-product} date mar 18 ago 2015 19:46:49 CEST
;FORMAT={-:-/ absolute / inch / decimal}
FMAT,2
INCH,TZ
T1C0.016
T2C0.025
T3C0.031
T4C0.032
T5C0.040
T6C0.045
T7C0.055
T8C0.060
T9C0.065
T10C0.070
T11C0.075
T12C0.080
T13C0.095
T14C0.118
T15C0.120
T16C0.125
T17C0.140
%
G90
G05
M72
T1
X4.05Y-4.325
X6.375Y-4.35
T2
X3.9Y-4.325
X3.975Y-4.325
T3
X3.8537Y-6.3
T4
X2.975Y-6.3
X2.975Y-6.4766
X2.975Y-6.575
X3.0537Y-6.3
X3.7Y-3.2
X3.7Y-3.325
X3.7Y-3.575
X3.7Y-3.7
X3.775Y-2.6766
X3.775Y-2.775
X3.775Y-4.125
X3.775Y-4.2234
X3.775Y-6.3
X3.85Y-6.475
X3.85Y-6.5734
X3.975Y-2.6963
X3.975Y-2.775
X3.975Y-4.125
X3.975Y-4.2037
X4.1Y-3.2
X4.1Y-3.325
X4.1Y-3.575
X4.1Y-3.7
X4.2963Y-1.925
X4.3Y-4.6
X4.3Y-5.
X4.375Y-1.925
X4.425Y-5.
X4.45Y-4.65
X4.45Y-4.75
X4.45Y-4.85
X4.65Y-4.65
X4.65Y-4.75
X4.65Y-4.85
X4.7766Y-3.45
X4.825Y-5.
X4.875Y-3.45
X4.925Y-4.7
X4.925Y-4.7984
X4.95Y-1.675
X4.95Y-1.7734
X4.975Y-1.95
X4.975Y-5.025
X4.9751Y-1.475
X5.05Y-4.6
X5.05Y-4.9
X5.0751Y-1.475
X5.15Y-4.6
X5.15Y-4.9
X5.2251Y-1.475
X5.25Y-4.6
X5.25Y-4.9
X5.3251Y-1.475
X5.35Y-4.6
X5.35Y-4.9
X5.375Y-1.95
X5.375Y-5.025
X5.475Y-4.75
X5.4751Y-1.475
X5.5Y-1.95
X5.5Y-5.025
X5.575Y-4.65
X5.575Y-4.85
X5.5751Y-1.475
X5.625Y-2.6766
X5.625Y-2.775
X5.625Y-4.125
X5.625Y-4.2234
X5.675Y-4.75
X5.7251Y-1.475
X5.775Y-4.65
X5.775Y-4.85
X5.825Y-2.6963
X5.825Y-2.775
X5.8251Y-1.475
X5.85Y-4.125
X5.85Y-4.2037
X5.9Y-1.95
X5.9Y-5.025
X5.925Y-4.625
X5.925Y-4.725
X5.925Y-4.825
T5
X3.0531Y-5.425
X3.0531Y-5.95
X3.25Y-5.425
X3.25Y-5.95
X3.2647Y-6.5
X3.56Y-6.5
X3.5781Y-5.425
X3.5781Y-5.95
X3.775Y-5.425
X3.775Y-5.95
X4.075Y-5.2063
X4.075Y-5.9937
X4.075Y-6.2063
X4.075Y-6.9937
X4.1749Y-4.6
X4.1749Y-5.
X5.2547Y-1.7
X5.2547Y-1.825
X5.8453Y-1.7
X5.8453Y-1.825
X6.175Y-4.7
X6.175Y-5.025
X6.275Y-4.7
X6.275Y-5.025
X6.375Y-4.7
X6.375Y-5.025
T6
X2.975Y-1.625
X3.175Y-1.625
X3.375Y-1.625
X3.5767Y-1.625
X3.775Y-1.625
X3.8Y-3.05
X3.8Y-3.85
X3.9Y-3.05
X3.9Y-3.85
X3.975Y-1.625
X4.Y-3.05
X4.Y-3.85
X4.1767Y-1.625
X4.375Y-1.625
X4.575Y-1.625
X4.575Y-1.95
X4.675Y-1.95
X4.775Y-1.95
X4.7767Y-1.625
X5.65Y-3.05
X5.65Y-3.85
X5.75Y-3.05
X5.75Y-3.85
X5.85Y-3.05
X5.85Y-3.85
X6.425Y-5.6
X6.425Y-5.7
X6.425Y-5.8
X6.425Y-5.9
T7
X4.4Y-5.505
X4.4Y-6.025
X4.92Y-5.505
X4.92Y-6.025
T8
X3.Y-4.65
X3.Y-4.95
X3.2Y-4.65
X3.2Y-4.95
X3.4Y-4.65
X3.4Y-4.95
X4.Y-4.65
X4.Y-4.95
X5.185Y-5.375
X5.185Y-6.15
X6.075Y-5.375
X6.075Y-6.15
T9
X6.3Y-5.525
X6.3Y-5.675
X6.3Y-5.825
X6.3Y-5.975
T10
X6.315Y-1.9
T11
X5.175Y-6.5
X5.45Y-6.5
X5.725Y-6.5
T12
X6.4Y-1.4
X6.5Y-1.9
X6.6Y-1.4
X6.685Y-1.9
T13
X3.4Y-2.925
X3.4Y-3.975
X4.4Y-2.925
X4.4Y-3.975
X5.25Y-2.925
X5.25Y-3.975
X6.25Y-2.925
X6.25Y-3.975
T14
X3.05Y-2.175
X3.05Y-6.875
X6.6Y-2.175
X6.6Y-6.875
T15
X6.675Y-5.425
X6.675Y-6.075
T16
X6.075Y-1.6
T17
X4.673Y-6.787
X6.227Y-6.787
T0
M30
