G04 #@! TF.FileFunction,Legend,Bot*
%FSLAX46Y46*%
G04 Gerber Fmt 4.6, Leading zero omitted, Abs format (unit mm)*
G04 Created by KiCad (PCBNEW 0.201508110901+6083~28~ubuntu14.04.1-product) date mar 18 ago 2015 19:46:52 CEST*
%MOMM*%
G01*
G04 APERTURE LIST*
%ADD10C,0.101600*%
%ADD11C,0.300000*%
%ADD12C,0.150000*%
G04 APERTURE END LIST*
D10*
D11*
X143769284Y-54852857D02*
X144269284Y-54852857D01*
X144269284Y-55638571D02*
X144269284Y-54138571D01*
X143554998Y-54138571D01*
X142983570Y-55638571D02*
X142983570Y-54638571D01*
X142983570Y-54924286D02*
X142912142Y-54781429D01*
X142840713Y-54710000D01*
X142697856Y-54638571D01*
X142554999Y-54638571D01*
X141483571Y-55567143D02*
X141626428Y-55638571D01*
X141912142Y-55638571D01*
X142054999Y-55567143D01*
X142126428Y-55424286D01*
X142126428Y-54852857D01*
X142054999Y-54710000D01*
X141912142Y-54638571D01*
X141626428Y-54638571D01*
X141483571Y-54710000D01*
X141412142Y-54852857D01*
X141412142Y-54995714D01*
X142126428Y-55138571D01*
X140197857Y-55567143D02*
X140340714Y-55638571D01*
X140626428Y-55638571D01*
X140769285Y-55567143D01*
X140840714Y-55424286D01*
X140840714Y-54852857D01*
X140769285Y-54710000D01*
X140626428Y-54638571D01*
X140340714Y-54638571D01*
X140197857Y-54710000D01*
X140126428Y-54852857D01*
X140126428Y-54995714D01*
X140840714Y-55138571D01*
X138626428Y-55495714D02*
X138697857Y-55567143D01*
X138912143Y-55638571D01*
X139055000Y-55638571D01*
X139269285Y-55567143D01*
X139412143Y-55424286D01*
X139483571Y-55281429D01*
X139555000Y-54995714D01*
X139555000Y-54781429D01*
X139483571Y-54495714D01*
X139412143Y-54352857D01*
X139269285Y-54210000D01*
X139055000Y-54138571D01*
X138912143Y-54138571D01*
X138697857Y-54210000D01*
X138626428Y-54281429D01*
X137340714Y-55638571D02*
X137340714Y-54852857D01*
X137412143Y-54710000D01*
X137555000Y-54638571D01*
X137840714Y-54638571D01*
X137983571Y-54710000D01*
X137340714Y-55567143D02*
X137483571Y-55638571D01*
X137840714Y-55638571D01*
X137983571Y-55567143D01*
X138055000Y-55424286D01*
X138055000Y-55281429D01*
X137983571Y-55138571D01*
X137840714Y-55067143D01*
X137483571Y-55067143D01*
X137340714Y-54995714D01*
X136626428Y-54638571D02*
X136626428Y-55638571D01*
X136626428Y-54781429D02*
X136555000Y-54710000D01*
X136412142Y-54638571D01*
X136197857Y-54638571D01*
X136055000Y-54710000D01*
X135983571Y-54852857D01*
X135983571Y-55638571D01*
X135412142Y-54638571D02*
X135054999Y-55638571D01*
X134697857Y-54638571D01*
X133483571Y-55638571D02*
X133483571Y-54852857D01*
X133555000Y-54710000D01*
X133697857Y-54638571D01*
X133983571Y-54638571D01*
X134126428Y-54710000D01*
X133483571Y-55567143D02*
X133626428Y-55638571D01*
X133983571Y-55638571D01*
X134126428Y-55567143D01*
X134197857Y-55424286D01*
X134197857Y-55281429D01*
X134126428Y-55138571D01*
X133983571Y-55067143D01*
X133626428Y-55067143D01*
X133483571Y-54995714D01*
X132840714Y-55567143D02*
X132697857Y-55638571D01*
X132412142Y-55638571D01*
X132269285Y-55567143D01*
X132197857Y-55424286D01*
X132197857Y-55352857D01*
X132269285Y-55210000D01*
X132412142Y-55138571D01*
X132626428Y-55138571D01*
X132769285Y-55067143D01*
X132840714Y-54924286D01*
X132840714Y-54852857D01*
X132769285Y-54710000D01*
X132626428Y-54638571D01*
X132412142Y-54638571D01*
X132269285Y-54710000D01*
X130412142Y-55067143D02*
X129269285Y-55067143D01*
X127412142Y-55638571D02*
X127412142Y-54138571D01*
X126840714Y-54138571D01*
X126697856Y-54210000D01*
X126626428Y-54281429D01*
X126554999Y-54424286D01*
X126554999Y-54638571D01*
X126626428Y-54781429D01*
X126697856Y-54852857D01*
X126840714Y-54924286D01*
X127412142Y-54924286D01*
X125697856Y-55638571D02*
X125840714Y-55567143D01*
X125912142Y-55495714D01*
X125983571Y-55352857D01*
X125983571Y-54924286D01*
X125912142Y-54781429D01*
X125840714Y-54710000D01*
X125697856Y-54638571D01*
X125483571Y-54638571D01*
X125340714Y-54710000D01*
X125269285Y-54781429D01*
X125197856Y-54924286D01*
X125197856Y-55352857D01*
X125269285Y-55495714D01*
X125340714Y-55567143D01*
X125483571Y-55638571D01*
X125697856Y-55638571D01*
X124697856Y-54638571D02*
X124412142Y-55638571D01*
X124126428Y-54924286D01*
X123840713Y-55638571D01*
X123554999Y-54638571D01*
X122412142Y-55567143D02*
X122554999Y-55638571D01*
X122840713Y-55638571D01*
X122983570Y-55567143D01*
X123054999Y-55424286D01*
X123054999Y-54852857D01*
X122983570Y-54710000D01*
X122840713Y-54638571D01*
X122554999Y-54638571D01*
X122412142Y-54710000D01*
X122340713Y-54852857D01*
X122340713Y-54995714D01*
X123054999Y-55138571D01*
X121697856Y-55638571D02*
X121697856Y-54638571D01*
X121697856Y-54924286D02*
X121626428Y-54781429D01*
X121554999Y-54710000D01*
X121412142Y-54638571D01*
X121269285Y-54638571D01*
X119697857Y-55567143D02*
X119483571Y-55638571D01*
X119126428Y-55638571D01*
X118983571Y-55567143D01*
X118912142Y-55495714D01*
X118840714Y-55352857D01*
X118840714Y-55210000D01*
X118912142Y-55067143D01*
X118983571Y-54995714D01*
X119126428Y-54924286D01*
X119412142Y-54852857D01*
X119555000Y-54781429D01*
X119626428Y-54710000D01*
X119697857Y-54567143D01*
X119697857Y-54424286D01*
X119626428Y-54281429D01*
X119555000Y-54210000D01*
X119412142Y-54138571D01*
X119055000Y-54138571D01*
X118840714Y-54210000D01*
X117555000Y-54638571D02*
X117555000Y-55638571D01*
X118197857Y-54638571D02*
X118197857Y-55424286D01*
X118126429Y-55567143D01*
X117983571Y-55638571D01*
X117769286Y-55638571D01*
X117626429Y-55567143D01*
X117555000Y-55495714D01*
X116840714Y-54638571D02*
X116840714Y-56138571D01*
X116840714Y-54710000D02*
X116697857Y-54638571D01*
X116412143Y-54638571D01*
X116269286Y-54710000D01*
X116197857Y-54781429D01*
X116126428Y-54924286D01*
X116126428Y-55352857D01*
X116197857Y-55495714D01*
X116269286Y-55567143D01*
X116412143Y-55638571D01*
X116697857Y-55638571D01*
X116840714Y-55567143D01*
X115483571Y-54638571D02*
X115483571Y-56138571D01*
X115483571Y-54710000D02*
X115340714Y-54638571D01*
X115055000Y-54638571D01*
X114912143Y-54710000D01*
X114840714Y-54781429D01*
X114769285Y-54924286D01*
X114769285Y-55352857D01*
X114840714Y-55495714D01*
X114912143Y-55567143D01*
X115055000Y-55638571D01*
X115340714Y-55638571D01*
X115483571Y-55567143D01*
X113912142Y-55638571D02*
X114055000Y-55567143D01*
X114126428Y-55424286D01*
X114126428Y-54138571D01*
X113483571Y-54638571D02*
X113126428Y-55638571D01*
X112769286Y-54638571D02*
X113126428Y-55638571D01*
X113269286Y-55995714D01*
X113340714Y-56067143D01*
X113483571Y-56138571D01*
X111197857Y-54638571D02*
X110840714Y-55638571D01*
X110483572Y-54638571D01*
X109126429Y-55638571D02*
X109983572Y-55638571D01*
X109555000Y-55638571D02*
X109555000Y-54138571D01*
X109697857Y-54352857D01*
X109840715Y-54495714D01*
X109983572Y-54567143D01*
X108483572Y-55495714D02*
X108412144Y-55567143D01*
X108483572Y-55638571D01*
X108555001Y-55567143D01*
X108483572Y-55495714D01*
X108483572Y-55638571D01*
X106983572Y-55638571D02*
X107840715Y-55638571D01*
X107412143Y-55638571D02*
X107412143Y-54138571D01*
X107555000Y-54352857D01*
X107697858Y-54495714D01*
X107840715Y-54567143D01*
X106340715Y-55495714D02*
X106269287Y-55567143D01*
X106340715Y-55638571D01*
X106412144Y-55567143D01*
X106340715Y-55495714D01*
X106340715Y-55638571D01*
X105697858Y-54281429D02*
X105626429Y-54210000D01*
X105483572Y-54138571D01*
X105126429Y-54138571D01*
X104983572Y-54210000D01*
X104912143Y-54281429D01*
X104840715Y-54424286D01*
X104840715Y-54567143D01*
X104912143Y-54781429D01*
X105769286Y-55638571D01*
X104840715Y-55638571D01*
X104197858Y-55067143D02*
X103055001Y-55067143D01*
X102340715Y-55638571D02*
X102340715Y-54638571D01*
X102340715Y-54924286D02*
X102269287Y-54781429D01*
X102197858Y-54710000D01*
X102055001Y-54638571D01*
X101912144Y-54638571D01*
X100769287Y-55567143D02*
X100912144Y-55638571D01*
X101197858Y-55638571D01*
X101340716Y-55567143D01*
X101412144Y-55495714D01*
X101483573Y-55352857D01*
X101483573Y-54924286D01*
X101412144Y-54781429D01*
X101340716Y-54710000D01*
X101197858Y-54638571D01*
X100912144Y-54638571D01*
X100769287Y-54710000D01*
X143376429Y-57967143D02*
X143162143Y-58038571D01*
X142805000Y-58038571D01*
X142662143Y-57967143D01*
X142590714Y-57895714D01*
X142519286Y-57752857D01*
X142519286Y-57610000D01*
X142590714Y-57467143D01*
X142662143Y-57395714D01*
X142805000Y-57324286D01*
X143090714Y-57252857D01*
X143233572Y-57181429D01*
X143305000Y-57110000D01*
X143376429Y-56967143D01*
X143376429Y-56824286D01*
X143305000Y-56681429D01*
X143233572Y-56610000D01*
X143090714Y-56538571D01*
X142733572Y-56538571D01*
X142519286Y-56610000D01*
X142019286Y-57038571D02*
X141662143Y-58038571D01*
X141305001Y-57038571D02*
X141662143Y-58038571D01*
X141805001Y-58395714D01*
X141876429Y-58467143D01*
X142019286Y-58538571D01*
X140733572Y-57038571D02*
X140733572Y-58038571D01*
X140733572Y-57181429D02*
X140662144Y-57110000D01*
X140519286Y-57038571D01*
X140305001Y-57038571D01*
X140162144Y-57110000D01*
X140090715Y-57252857D01*
X140090715Y-58038571D01*
X138733572Y-57038571D02*
X138733572Y-58038571D01*
X139376429Y-57038571D02*
X139376429Y-57824286D01*
X139305001Y-57967143D01*
X139162143Y-58038571D01*
X138947858Y-58038571D01*
X138805001Y-57967143D01*
X138733572Y-57895714D01*
X138090715Y-57967143D02*
X137947858Y-58038571D01*
X137662143Y-58038571D01*
X137519286Y-57967143D01*
X137447858Y-57824286D01*
X137447858Y-57752857D01*
X137519286Y-57610000D01*
X137662143Y-57538571D01*
X137876429Y-57538571D01*
X138019286Y-57467143D01*
X138090715Y-57324286D01*
X138090715Y-57252857D01*
X138019286Y-57110000D01*
X137876429Y-57038571D01*
X137662143Y-57038571D01*
X137519286Y-57110000D01*
X136805000Y-58038571D02*
X136805000Y-57038571D01*
X136805000Y-56538571D02*
X136876429Y-56610000D01*
X136805000Y-56681429D01*
X136733572Y-56610000D01*
X136805000Y-56538571D01*
X136805000Y-56681429D01*
X135447857Y-58038571D02*
X135447857Y-57252857D01*
X135519286Y-57110000D01*
X135662143Y-57038571D01*
X135947857Y-57038571D01*
X136090714Y-57110000D01*
X135447857Y-57967143D02*
X135590714Y-58038571D01*
X135947857Y-58038571D01*
X136090714Y-57967143D01*
X136162143Y-57824286D01*
X136162143Y-57681429D01*
X136090714Y-57538571D01*
X135947857Y-57467143D01*
X135590714Y-57467143D01*
X135447857Y-57395714D01*
X133233571Y-58538571D02*
X133233571Y-56395714D01*
X131019286Y-58038571D02*
X131019286Y-56538571D01*
X130662143Y-56538571D01*
X130447858Y-56610000D01*
X130305000Y-56752857D01*
X130233572Y-56895714D01*
X130162143Y-57181429D01*
X130162143Y-57395714D01*
X130233572Y-57681429D01*
X130305000Y-57824286D01*
X130447858Y-57967143D01*
X130662143Y-58038571D01*
X131019286Y-58038571D01*
X128947858Y-57967143D02*
X129090715Y-58038571D01*
X129376429Y-58038571D01*
X129519286Y-57967143D01*
X129590715Y-57824286D01*
X129590715Y-57252857D01*
X129519286Y-57110000D01*
X129376429Y-57038571D01*
X129090715Y-57038571D01*
X128947858Y-57110000D01*
X128876429Y-57252857D01*
X128876429Y-57395714D01*
X129590715Y-57538571D01*
X128305001Y-57967143D02*
X128162144Y-58038571D01*
X127876429Y-58038571D01*
X127733572Y-57967143D01*
X127662144Y-57824286D01*
X127662144Y-57752857D01*
X127733572Y-57610000D01*
X127876429Y-57538571D01*
X128090715Y-57538571D01*
X128233572Y-57467143D01*
X128305001Y-57324286D01*
X128305001Y-57252857D01*
X128233572Y-57110000D01*
X128090715Y-57038571D01*
X127876429Y-57038571D01*
X127733572Y-57110000D01*
X127019286Y-58038571D02*
X127019286Y-57038571D01*
X127019286Y-56538571D02*
X127090715Y-56610000D01*
X127019286Y-56681429D01*
X126947858Y-56610000D01*
X127019286Y-56538571D01*
X127019286Y-56681429D01*
X125662143Y-57038571D02*
X125662143Y-58252857D01*
X125733572Y-58395714D01*
X125805000Y-58467143D01*
X125947857Y-58538571D01*
X126162143Y-58538571D01*
X126305000Y-58467143D01*
X125662143Y-57967143D02*
X125805000Y-58038571D01*
X126090714Y-58038571D01*
X126233572Y-57967143D01*
X126305000Y-57895714D01*
X126376429Y-57752857D01*
X126376429Y-57324286D01*
X126305000Y-57181429D01*
X126233572Y-57110000D01*
X126090714Y-57038571D01*
X125805000Y-57038571D01*
X125662143Y-57110000D01*
X124947857Y-57038571D02*
X124947857Y-58038571D01*
X124947857Y-57181429D02*
X124876429Y-57110000D01*
X124733571Y-57038571D01*
X124519286Y-57038571D01*
X124376429Y-57110000D01*
X124305000Y-57252857D01*
X124305000Y-58038571D01*
X123019286Y-57967143D02*
X123162143Y-58038571D01*
X123447857Y-58038571D01*
X123590714Y-57967143D01*
X123662143Y-57824286D01*
X123662143Y-57252857D01*
X123590714Y-57110000D01*
X123447857Y-57038571D01*
X123162143Y-57038571D01*
X123019286Y-57110000D01*
X122947857Y-57252857D01*
X122947857Y-57395714D01*
X123662143Y-57538571D01*
X121662143Y-58038571D02*
X121662143Y-56538571D01*
X121662143Y-57967143D02*
X121805000Y-58038571D01*
X122090714Y-58038571D01*
X122233572Y-57967143D01*
X122305000Y-57895714D01*
X122376429Y-57752857D01*
X122376429Y-57324286D01*
X122305000Y-57181429D01*
X122233572Y-57110000D01*
X122090714Y-57038571D01*
X121805000Y-57038571D01*
X121662143Y-57110000D01*
X119805000Y-58038571D02*
X119805000Y-56538571D01*
X119805000Y-57110000D02*
X119662143Y-57038571D01*
X119376429Y-57038571D01*
X119233572Y-57110000D01*
X119162143Y-57181429D01*
X119090714Y-57324286D01*
X119090714Y-57752857D01*
X119162143Y-57895714D01*
X119233572Y-57967143D01*
X119376429Y-58038571D01*
X119662143Y-58038571D01*
X119805000Y-57967143D01*
X118590714Y-57038571D02*
X118233571Y-58038571D01*
X117876429Y-57038571D02*
X118233571Y-58038571D01*
X118376429Y-58395714D01*
X118447857Y-58467143D01*
X118590714Y-58538571D01*
X116162143Y-58038571D02*
X116162143Y-56538571D01*
X116019286Y-57467143D02*
X115590715Y-58038571D01*
X115590715Y-57038571D02*
X116162143Y-57610000D01*
X115090714Y-57038571D02*
X114805000Y-58038571D01*
X114519286Y-57324286D01*
X114233571Y-58038571D01*
X113947857Y-57038571D01*
X112805000Y-57967143D02*
X112947857Y-58038571D01*
X113233571Y-58038571D01*
X113376428Y-57967143D01*
X113447857Y-57824286D01*
X113447857Y-57252857D01*
X113376428Y-57110000D01*
X113233571Y-57038571D01*
X112947857Y-57038571D01*
X112805000Y-57110000D01*
X112733571Y-57252857D01*
X112733571Y-57395714D01*
X113447857Y-57538571D01*
X112090714Y-57038571D02*
X112090714Y-58038571D01*
X112090714Y-57181429D02*
X112019286Y-57110000D01*
X111876428Y-57038571D01*
X111662143Y-57038571D01*
X111519286Y-57110000D01*
X111447857Y-57252857D01*
X111447857Y-58038571D01*
X110090714Y-58038571D02*
X110090714Y-56538571D01*
X110090714Y-57967143D02*
X110233571Y-58038571D01*
X110519285Y-58038571D01*
X110662143Y-57967143D01*
X110733571Y-57895714D01*
X110805000Y-57752857D01*
X110805000Y-57324286D01*
X110733571Y-57181429D01*
X110662143Y-57110000D01*
X110519285Y-57038571D01*
X110233571Y-57038571D01*
X110090714Y-57110000D01*
X108805000Y-57967143D02*
X108947857Y-58038571D01*
X109233571Y-58038571D01*
X109376428Y-57967143D01*
X109447857Y-57824286D01*
X109447857Y-57252857D01*
X109376428Y-57110000D01*
X109233571Y-57038571D01*
X108947857Y-57038571D01*
X108805000Y-57110000D01*
X108733571Y-57252857D01*
X108733571Y-57395714D01*
X109447857Y-57538571D01*
X108090714Y-57038571D02*
X108090714Y-58038571D01*
X108090714Y-57181429D02*
X108019286Y-57110000D01*
X107876428Y-57038571D01*
X107662143Y-57038571D01*
X107519286Y-57110000D01*
X107447857Y-57252857D01*
X107447857Y-58038571D01*
X106090714Y-58038571D02*
X106090714Y-57252857D01*
X106162143Y-57110000D01*
X106305000Y-57038571D01*
X106590714Y-57038571D01*
X106733571Y-57110000D01*
X106090714Y-57967143D02*
X106233571Y-58038571D01*
X106590714Y-58038571D01*
X106733571Y-57967143D01*
X106805000Y-57824286D01*
X106805000Y-57681429D01*
X106733571Y-57538571D01*
X106590714Y-57467143D01*
X106233571Y-57467143D01*
X106090714Y-57395714D01*
X105376428Y-58038571D02*
X105376428Y-57038571D01*
X105376428Y-57324286D02*
X105305000Y-57181429D01*
X105233571Y-57110000D01*
X105090714Y-57038571D01*
X104947857Y-57038571D01*
X104447857Y-58038571D02*
X104447857Y-57038571D01*
X104447857Y-57181429D02*
X104376429Y-57110000D01*
X104233571Y-57038571D01*
X104019286Y-57038571D01*
X103876429Y-57110000D01*
X103805000Y-57252857D01*
X103805000Y-58038571D01*
X103805000Y-57252857D02*
X103733571Y-57110000D01*
X103590714Y-57038571D01*
X103376429Y-57038571D01*
X103233571Y-57110000D01*
X103162143Y-57252857D01*
X103162143Y-58038571D01*
X102233571Y-58038571D02*
X102376429Y-57967143D01*
X102447857Y-57895714D01*
X102519286Y-57752857D01*
X102519286Y-57324286D01*
X102447857Y-57181429D01*
X102376429Y-57110000D01*
X102233571Y-57038571D01*
X102019286Y-57038571D01*
X101876429Y-57110000D01*
X101805000Y-57181429D01*
X101733571Y-57324286D01*
X101733571Y-57752857D01*
X101805000Y-57895714D01*
X101876429Y-57967143D01*
X102019286Y-58038571D01*
X102233571Y-58038571D01*
X144305002Y-62838571D02*
X144305002Y-61338571D01*
X143662145Y-62838571D02*
X143662145Y-62052857D01*
X143733574Y-61910000D01*
X143876431Y-61838571D01*
X144090716Y-61838571D01*
X144233574Y-61910000D01*
X144305002Y-61981429D01*
X143162145Y-61838571D02*
X142590716Y-61838571D01*
X142947859Y-61338571D02*
X142947859Y-62624286D01*
X142876431Y-62767143D01*
X142733573Y-62838571D01*
X142590716Y-62838571D01*
X142305002Y-61838571D02*
X141733573Y-61838571D01*
X142090716Y-61338571D02*
X142090716Y-62624286D01*
X142019288Y-62767143D01*
X141876430Y-62838571D01*
X141733573Y-62838571D01*
X141233573Y-61838571D02*
X141233573Y-63338571D01*
X141233573Y-61910000D02*
X141090716Y-61838571D01*
X140805002Y-61838571D01*
X140662145Y-61910000D01*
X140590716Y-61981429D01*
X140519287Y-62124286D01*
X140519287Y-62552857D01*
X140590716Y-62695714D01*
X140662145Y-62767143D01*
X140805002Y-62838571D01*
X141090716Y-62838571D01*
X141233573Y-62767143D01*
X139876430Y-62695714D02*
X139805002Y-62767143D01*
X139876430Y-62838571D01*
X139947859Y-62767143D01*
X139876430Y-62695714D01*
X139876430Y-62838571D01*
X139876430Y-61910000D02*
X139805002Y-61981429D01*
X139876430Y-62052857D01*
X139947859Y-61981429D01*
X139876430Y-61910000D01*
X139876430Y-62052857D01*
X138090716Y-61267143D02*
X139376430Y-63195714D01*
X136519287Y-61267143D02*
X137805001Y-63195714D01*
X135376429Y-61838571D02*
X135376429Y-63052857D01*
X135447858Y-63195714D01*
X135519286Y-63267143D01*
X135662143Y-63338571D01*
X135876429Y-63338571D01*
X136019286Y-63267143D01*
X135376429Y-62767143D02*
X135519286Y-62838571D01*
X135805000Y-62838571D01*
X135947858Y-62767143D01*
X136019286Y-62695714D01*
X136090715Y-62552857D01*
X136090715Y-62124286D01*
X136019286Y-61981429D01*
X135947858Y-61910000D01*
X135805000Y-61838571D01*
X135519286Y-61838571D01*
X135376429Y-61910000D01*
X134662143Y-62838571D02*
X134662143Y-61838571D01*
X134662143Y-61338571D02*
X134733572Y-61410000D01*
X134662143Y-61481429D01*
X134590715Y-61410000D01*
X134662143Y-61338571D01*
X134662143Y-61481429D01*
X134162143Y-61838571D02*
X133590714Y-61838571D01*
X133947857Y-61338571D02*
X133947857Y-62624286D01*
X133876429Y-62767143D01*
X133733571Y-62838571D01*
X133590714Y-62838571D01*
X133090714Y-62838571D02*
X133090714Y-61338571D01*
X132447857Y-62838571D02*
X132447857Y-62052857D01*
X132519286Y-61910000D01*
X132662143Y-61838571D01*
X132876428Y-61838571D01*
X133019286Y-61910000D01*
X133090714Y-61981429D01*
X131090714Y-61838571D02*
X131090714Y-62838571D01*
X131733571Y-61838571D02*
X131733571Y-62624286D01*
X131662143Y-62767143D01*
X131519285Y-62838571D01*
X131305000Y-62838571D01*
X131162143Y-62767143D01*
X131090714Y-62695714D01*
X130376428Y-62838571D02*
X130376428Y-61338571D01*
X130376428Y-61910000D02*
X130233571Y-61838571D01*
X129947857Y-61838571D01*
X129805000Y-61910000D01*
X129733571Y-61981429D01*
X129662142Y-62124286D01*
X129662142Y-62552857D01*
X129733571Y-62695714D01*
X129805000Y-62767143D01*
X129947857Y-62838571D01*
X130233571Y-62838571D01*
X130376428Y-62767143D01*
X129019285Y-62695714D02*
X128947857Y-62767143D01*
X129019285Y-62838571D01*
X129090714Y-62767143D01*
X129019285Y-62695714D01*
X129019285Y-62838571D01*
X127662142Y-62767143D02*
X127804999Y-62838571D01*
X128090713Y-62838571D01*
X128233571Y-62767143D01*
X128304999Y-62695714D01*
X128376428Y-62552857D01*
X128376428Y-62124286D01*
X128304999Y-61981429D01*
X128233571Y-61910000D01*
X128090713Y-61838571D01*
X127804999Y-61838571D01*
X127662142Y-61910000D01*
X126804999Y-62838571D02*
X126947857Y-62767143D01*
X127019285Y-62695714D01*
X127090714Y-62552857D01*
X127090714Y-62124286D01*
X127019285Y-61981429D01*
X126947857Y-61910000D01*
X126804999Y-61838571D01*
X126590714Y-61838571D01*
X126447857Y-61910000D01*
X126376428Y-61981429D01*
X126304999Y-62124286D01*
X126304999Y-62552857D01*
X126376428Y-62695714D01*
X126447857Y-62767143D01*
X126590714Y-62838571D01*
X126804999Y-62838571D01*
X125662142Y-62838571D02*
X125662142Y-61838571D01*
X125662142Y-61981429D02*
X125590714Y-61910000D01*
X125447856Y-61838571D01*
X125233571Y-61838571D01*
X125090714Y-61910000D01*
X125019285Y-62052857D01*
X125019285Y-62838571D01*
X125019285Y-62052857D02*
X124947856Y-61910000D01*
X124804999Y-61838571D01*
X124590714Y-61838571D01*
X124447856Y-61910000D01*
X124376428Y-62052857D01*
X124376428Y-62838571D01*
X122590714Y-61267143D02*
X123876428Y-63195714D01*
X122162142Y-62767143D02*
X122019285Y-62838571D01*
X121733570Y-62838571D01*
X121590713Y-62767143D01*
X121519285Y-62624286D01*
X121519285Y-62552857D01*
X121590713Y-62410000D01*
X121733570Y-62338571D01*
X121947856Y-62338571D01*
X122090713Y-62267143D01*
X122162142Y-62124286D01*
X122162142Y-62052857D01*
X122090713Y-61910000D01*
X121947856Y-61838571D01*
X121733570Y-61838571D01*
X121590713Y-61910000D01*
X121019284Y-61838571D02*
X120662141Y-62838571D01*
X120304999Y-61838571D02*
X120662141Y-62838571D01*
X120804999Y-63195714D01*
X120876427Y-63267143D01*
X121019284Y-63338571D01*
X119733570Y-61838571D02*
X119733570Y-62838571D01*
X119733570Y-61981429D02*
X119662142Y-61910000D01*
X119519284Y-61838571D01*
X119304999Y-61838571D01*
X119162142Y-61910000D01*
X119090713Y-62052857D01*
X119090713Y-62838571D01*
X117733570Y-61838571D02*
X117733570Y-62838571D01*
X118376427Y-61838571D02*
X118376427Y-62624286D01*
X118304999Y-62767143D01*
X118162141Y-62838571D01*
X117947856Y-62838571D01*
X117804999Y-62767143D01*
X117733570Y-62695714D01*
X117090713Y-62767143D02*
X116947856Y-62838571D01*
X116662141Y-62838571D01*
X116519284Y-62767143D01*
X116447856Y-62624286D01*
X116447856Y-62552857D01*
X116519284Y-62410000D01*
X116662141Y-62338571D01*
X116876427Y-62338571D01*
X117019284Y-62267143D01*
X117090713Y-62124286D01*
X117090713Y-62052857D01*
X117019284Y-61910000D01*
X116876427Y-61838571D01*
X116662141Y-61838571D01*
X116519284Y-61910000D01*
X115804998Y-62838571D02*
X115804998Y-61838571D01*
X115804998Y-61338571D02*
X115876427Y-61410000D01*
X115804998Y-61481429D01*
X115733570Y-61410000D01*
X115804998Y-61338571D01*
X115804998Y-61481429D01*
X114447855Y-62838571D02*
X114447855Y-62052857D01*
X114519284Y-61910000D01*
X114662141Y-61838571D01*
X114947855Y-61838571D01*
X115090712Y-61910000D01*
X114447855Y-62767143D02*
X114590712Y-62838571D01*
X114947855Y-62838571D01*
X115090712Y-62767143D01*
X115162141Y-62624286D01*
X115162141Y-62481429D01*
X115090712Y-62338571D01*
X114947855Y-62267143D01*
X114590712Y-62267143D01*
X114447855Y-62195714D01*
X112662141Y-61267143D02*
X113947855Y-63195714D01*
X112376426Y-61838571D02*
X111804997Y-61838571D01*
X112162140Y-62838571D02*
X112162140Y-61552857D01*
X112090712Y-61410000D01*
X111947854Y-61338571D01*
X111804997Y-61338571D01*
X111304997Y-62838571D02*
X111304997Y-61838571D01*
X111304997Y-62124286D02*
X111233569Y-61981429D01*
X111162140Y-61910000D01*
X111019283Y-61838571D01*
X110876426Y-61838571D01*
X109804998Y-62767143D02*
X109947855Y-62838571D01*
X110233569Y-62838571D01*
X110376426Y-62767143D01*
X110447855Y-62624286D01*
X110447855Y-62052857D01*
X110376426Y-61910000D01*
X110233569Y-61838571D01*
X109947855Y-61838571D01*
X109804998Y-61910000D01*
X109733569Y-62052857D01*
X109733569Y-62195714D01*
X110447855Y-62338571D01*
X108519284Y-62767143D02*
X108662141Y-62838571D01*
X108947855Y-62838571D01*
X109090712Y-62767143D01*
X109162141Y-62624286D01*
X109162141Y-62052857D01*
X109090712Y-61910000D01*
X108947855Y-61838571D01*
X108662141Y-61838571D01*
X108519284Y-61910000D01*
X108447855Y-62052857D01*
X108447855Y-62195714D01*
X109162141Y-62338571D01*
X107162141Y-62767143D02*
X107304998Y-62838571D01*
X107590712Y-62838571D01*
X107733570Y-62767143D01*
X107804998Y-62695714D01*
X107876427Y-62552857D01*
X107876427Y-62124286D01*
X107804998Y-61981429D01*
X107733570Y-61910000D01*
X107590712Y-61838571D01*
X107304998Y-61838571D01*
X107162141Y-61910000D01*
X105876427Y-62838571D02*
X105876427Y-62052857D01*
X105947856Y-61910000D01*
X106090713Y-61838571D01*
X106376427Y-61838571D01*
X106519284Y-61910000D01*
X105876427Y-62767143D02*
X106019284Y-62838571D01*
X106376427Y-62838571D01*
X106519284Y-62767143D01*
X106590713Y-62624286D01*
X106590713Y-62481429D01*
X106519284Y-62338571D01*
X106376427Y-62267143D01*
X106019284Y-62267143D01*
X105876427Y-62195714D01*
X105162141Y-61838571D02*
X105162141Y-62838571D01*
X105162141Y-61981429D02*
X105090713Y-61910000D01*
X104947855Y-61838571D01*
X104733570Y-61838571D01*
X104590713Y-61910000D01*
X104519284Y-62052857D01*
X104519284Y-62838571D01*
X103947855Y-61838571D02*
X103590712Y-62838571D01*
X103233570Y-61838571D01*
X102019284Y-62838571D02*
X102019284Y-62052857D01*
X102090713Y-61910000D01*
X102233570Y-61838571D01*
X102519284Y-61838571D01*
X102662141Y-61910000D01*
X102019284Y-62767143D02*
X102162141Y-62838571D01*
X102519284Y-62838571D01*
X102662141Y-62767143D01*
X102733570Y-62624286D01*
X102733570Y-62481429D01*
X102662141Y-62338571D01*
X102519284Y-62267143D01*
X102162141Y-62267143D01*
X102019284Y-62195714D01*
X101376427Y-62767143D02*
X101233570Y-62838571D01*
X100947855Y-62838571D01*
X100804998Y-62767143D01*
X100733570Y-62624286D01*
X100733570Y-62552857D01*
X100804998Y-62410000D01*
X100947855Y-62338571D01*
X101162141Y-62338571D01*
X101304998Y-62267143D01*
X101376427Y-62124286D01*
X101376427Y-62052857D01*
X101304998Y-61910000D01*
X101162141Y-61838571D01*
X100947855Y-61838571D01*
X100804998Y-61910000D01*
X135055000Y-66138571D02*
X135055000Y-67352857D01*
X134983572Y-67495714D01*
X134912143Y-67567143D01*
X134769286Y-67638571D01*
X134483572Y-67638571D01*
X134340714Y-67567143D01*
X134269286Y-67495714D01*
X134197857Y-67352857D01*
X134197857Y-66138571D01*
X133483571Y-67638571D02*
X133483571Y-66138571D01*
X132626428Y-67638571D01*
X132626428Y-66138571D01*
X131912142Y-67638571D02*
X131912142Y-66138571D01*
X131554999Y-66138571D01*
X131340714Y-66210000D01*
X131197856Y-66352857D01*
X131126428Y-66495714D01*
X131054999Y-66781429D01*
X131054999Y-66995714D01*
X131126428Y-67281429D01*
X131197856Y-67424286D01*
X131340714Y-67567143D01*
X131554999Y-67638571D01*
X131912142Y-67638571D01*
X130412142Y-66852857D02*
X129912142Y-66852857D01*
X129697856Y-67638571D02*
X130412142Y-67638571D01*
X130412142Y-66138571D01*
X129697856Y-66138571D01*
X128197856Y-67638571D02*
X128697856Y-66924286D01*
X129054999Y-67638571D02*
X129054999Y-66138571D01*
X128483571Y-66138571D01*
X128340713Y-66210000D01*
X128269285Y-66281429D01*
X128197856Y-66424286D01*
X128197856Y-66638571D01*
X128269285Y-66781429D01*
X128340713Y-66852857D01*
X128483571Y-66924286D01*
X129054999Y-66924286D01*
X125626428Y-66210000D02*
X125769285Y-66138571D01*
X125983571Y-66138571D01*
X126197856Y-66210000D01*
X126340714Y-66352857D01*
X126412142Y-66495714D01*
X126483571Y-66781429D01*
X126483571Y-66995714D01*
X126412142Y-67281429D01*
X126340714Y-67424286D01*
X126197856Y-67567143D01*
X125983571Y-67638571D01*
X125840714Y-67638571D01*
X125626428Y-67567143D01*
X125554999Y-67495714D01*
X125554999Y-66995714D01*
X125840714Y-66995714D01*
X124912142Y-67638571D02*
X124912142Y-66138571D01*
X124340714Y-66138571D01*
X124197856Y-66210000D01*
X124126428Y-66281429D01*
X124054999Y-66424286D01*
X124054999Y-66638571D01*
X124126428Y-66781429D01*
X124197856Y-66852857D01*
X124340714Y-66924286D01*
X124912142Y-66924286D01*
X122697856Y-67638571D02*
X123412142Y-67638571D01*
X123412142Y-66138571D01*
X122340713Y-66638571D02*
X121983570Y-67638571D01*
X121626428Y-66638571D01*
X121197856Y-66138571D02*
X120269285Y-66138571D01*
X120769285Y-66710000D01*
X120554999Y-66710000D01*
X120412142Y-66781429D01*
X120340713Y-66852857D01*
X120269285Y-66995714D01*
X120269285Y-67352857D01*
X120340713Y-67495714D01*
X120412142Y-67567143D01*
X120554999Y-67638571D01*
X120983571Y-67638571D01*
X121126428Y-67567143D01*
X121197856Y-67495714D01*
X117769285Y-67638571D02*
X118483571Y-67638571D01*
X118483571Y-66138571D01*
X117269285Y-67638571D02*
X117269285Y-66138571D01*
X115697856Y-67495714D02*
X115769285Y-67567143D01*
X115983571Y-67638571D01*
X116126428Y-67638571D01*
X116340713Y-67567143D01*
X116483571Y-67424286D01*
X116554999Y-67281429D01*
X116626428Y-66995714D01*
X116626428Y-66781429D01*
X116554999Y-66495714D01*
X116483571Y-66352857D01*
X116340713Y-66210000D01*
X116126428Y-66138571D01*
X115983571Y-66138571D01*
X115769285Y-66210000D01*
X115697856Y-66281429D01*
X115054999Y-66852857D02*
X114554999Y-66852857D01*
X114340713Y-67638571D02*
X115054999Y-67638571D01*
X115054999Y-66138571D01*
X114340713Y-66138571D01*
X113697856Y-67638571D02*
X113697856Y-66138571D01*
X112840713Y-67638571D01*
X112840713Y-66138571D01*
X112197856Y-67567143D02*
X111983570Y-67638571D01*
X111626427Y-67638571D01*
X111483570Y-67567143D01*
X111412141Y-67495714D01*
X111340713Y-67352857D01*
X111340713Y-67210000D01*
X111412141Y-67067143D01*
X111483570Y-66995714D01*
X111626427Y-66924286D01*
X111912141Y-66852857D01*
X112054999Y-66781429D01*
X112126427Y-66710000D01*
X112197856Y-66567143D01*
X112197856Y-66424286D01*
X112126427Y-66281429D01*
X112054999Y-66210000D01*
X111912141Y-66138571D01*
X111554999Y-66138571D01*
X111340713Y-66210000D01*
X110697856Y-66852857D02*
X110197856Y-66852857D01*
X109983570Y-67638571D02*
X110697856Y-67638571D01*
X110697856Y-66138571D01*
X109983570Y-66138571D01*
D12*
X122054620Y-69880480D02*
X127955040Y-75780900D01*
X127655320Y-74480420D02*
X127154940Y-73980040D01*
X123055380Y-72880220D02*
X123355100Y-73179940D01*
X125054360Y-75879960D02*
X124856240Y-75679300D01*
X126055120Y-70881240D02*
X125854460Y-70680580D01*
X126555500Y-71379080D02*
X126954280Y-71780400D01*
X125554740Y-71379080D02*
X125255020Y-71079360D01*
X124553980Y-71379080D02*
X124056140Y-70881240D01*
X122555000Y-69380100D02*
X122354340Y-69179440D01*
X122054620Y-69880480D02*
X121754900Y-69580760D01*
X122054620Y-70881240D02*
X121554240Y-70380860D01*
X120556020Y-71379080D02*
X120454420Y-71280020D01*
X121554240Y-71379080D02*
X121155460Y-70980300D01*
X119054880Y-70881240D02*
X118755160Y-70578980D01*
X118554500Y-71379080D02*
X118254780Y-71079360D01*
X126555500Y-76380340D02*
X126855220Y-76680060D01*
X125054360Y-74879200D02*
X124754640Y-74579480D01*
X127154940Y-78879700D02*
X127355600Y-79080360D01*
X125054360Y-76880720D02*
X124553980Y-76380340D01*
X126555500Y-79380080D02*
X126756160Y-79580740D01*
X124553980Y-77381100D02*
X124056140Y-76880720D01*
X124553980Y-78379320D02*
X124155200Y-77980540D01*
X119054880Y-73880980D02*
X118554500Y-73380600D01*
X118554500Y-74378820D02*
X118254780Y-74079100D01*
X119054880Y-77878940D02*
X118656100Y-77480160D01*
X117055900Y-74879200D02*
X116654580Y-74480420D01*
X118554500Y-78379320D02*
X119555260Y-79380080D01*
X119054880Y-77878940D02*
X120055640Y-78879700D01*
X117055900Y-74879200D02*
X121053860Y-78879700D01*
X117553740Y-74378820D02*
X121053860Y-77878940D01*
X118554500Y-74378820D02*
X121554240Y-77381100D01*
X124553980Y-78379320D02*
X125054360Y-78879700D01*
X124553980Y-77381100D02*
X126555500Y-79380080D01*
X125054360Y-76880720D02*
X127055880Y-78879700D01*
X125054360Y-75879960D02*
X126555500Y-77381100D01*
X125054360Y-74879200D02*
X126555500Y-76380340D01*
X122555000Y-69380100D02*
X123555760Y-70380860D01*
X126055120Y-70881240D02*
X126555500Y-71379080D01*
X125554740Y-71379080D02*
X126555500Y-72379840D01*
X127556260Y-74378820D02*
X128554480Y-75379580D01*
X124553980Y-71379080D02*
X127055880Y-73880980D01*
X122054620Y-70881240D02*
X127055880Y-75879960D01*
X119054880Y-73880980D02*
X120556020Y-75379580D01*
X119054880Y-72880220D02*
X120556020Y-74378820D01*
X121554240Y-71379080D02*
X123055380Y-72880220D01*
X118554500Y-71379080D02*
X121053860Y-73880980D01*
X119054880Y-70881240D02*
X121554240Y-73380600D01*
X120556020Y-71379080D02*
X122054620Y-72880220D01*
X117754400Y-83179920D02*
X117754400Y-83779360D01*
X119255540Y-82080100D02*
X118455440Y-85379560D01*
X118455440Y-85379560D02*
X118254780Y-85379560D01*
X118254780Y-85379560D02*
X117856000Y-83980020D01*
X117856000Y-83980020D02*
X117754400Y-83980020D01*
X117754400Y-83980020D02*
X117254020Y-85379560D01*
X117254020Y-85379560D02*
X117154960Y-85379560D01*
X117154960Y-85379560D02*
X116354860Y-82179160D01*
X116354860Y-82179160D02*
X116555520Y-82179160D01*
X116555520Y-82179160D02*
X117254020Y-84780120D01*
X117254020Y-84780120D02*
X117655340Y-82979260D01*
X117655340Y-82979260D02*
X117856000Y-82979260D01*
X117856000Y-82979260D02*
X118455440Y-84780120D01*
X118455440Y-84780120D02*
X119054880Y-82080100D01*
X119054880Y-82080100D02*
X119255540Y-82080100D01*
X121955560Y-83581240D02*
X120454420Y-83581240D01*
X120454420Y-83581240D02*
X120454420Y-83779360D01*
X120454420Y-83779360D02*
X121853960Y-83779360D01*
X120355360Y-82179160D02*
X120355360Y-85379560D01*
X120355360Y-85379560D02*
X120154700Y-85379560D01*
X120154700Y-85379560D02*
X120154700Y-82179160D01*
X120154700Y-82179160D02*
X120355360Y-82179160D01*
X121853960Y-82080100D02*
X121955560Y-82080100D01*
X122054620Y-82080100D02*
X122054620Y-85379560D01*
X122054620Y-85379560D02*
X121853960Y-85379560D01*
X121853960Y-85379560D02*
X121853960Y-82080100D01*
X122953780Y-82379820D02*
X123055380Y-82280760D01*
X123055380Y-82280760D02*
X123454160Y-82179160D01*
X123454160Y-82179160D02*
X123954540Y-82080100D01*
X123954540Y-82080100D02*
X124655580Y-82280760D01*
X124655580Y-82280760D02*
X124955300Y-82580480D01*
X124955300Y-82580480D02*
X125054360Y-83080860D01*
X125054360Y-83080860D02*
X124955300Y-83479640D01*
X124955300Y-83479640D02*
X124553980Y-83779360D01*
X124553980Y-83779360D02*
X124056140Y-83980020D01*
X124056140Y-83980020D02*
X123654820Y-84079080D01*
X123654820Y-84079080D02*
X123454160Y-84279740D01*
X123454160Y-84279740D02*
X123355100Y-84579460D01*
X123355100Y-84579460D02*
X123454160Y-84879180D01*
X123454160Y-84879180D02*
X123753880Y-85079840D01*
X123753880Y-85079840D02*
X124155200Y-85079840D01*
X124155200Y-85079840D02*
X124655580Y-85079840D01*
X124655580Y-85079840D02*
X124955300Y-84980780D01*
X124955300Y-84980780D02*
X125155960Y-85079840D01*
X125155960Y-85079840D02*
X124856240Y-85280500D01*
X124856240Y-85280500D02*
X124254260Y-85379560D01*
X124254260Y-85379560D02*
X123654820Y-85379560D01*
X123654820Y-85379560D02*
X123256040Y-85079840D01*
X123256040Y-85079840D02*
X123154440Y-84579460D01*
X123154440Y-84579460D02*
X123154440Y-84279740D01*
X123154440Y-84279740D02*
X123355100Y-83980020D01*
X123355100Y-83980020D02*
X123855480Y-83779360D01*
X123855480Y-83779360D02*
X124355860Y-83581240D01*
X124355860Y-83581240D02*
X124754640Y-83278980D01*
X124754640Y-83278980D02*
X124856240Y-82979260D01*
X124856240Y-82979260D02*
X124655580Y-82679540D01*
X124655580Y-82679540D02*
X124254260Y-82379820D01*
X124254260Y-82379820D02*
X123654820Y-82379820D01*
X123654820Y-82379820D02*
X123256040Y-82478880D01*
X123256040Y-82478880D02*
X122953780Y-82580480D01*
X127055880Y-82478880D02*
X127355600Y-82478880D01*
X127355600Y-82478880D02*
X127754380Y-82781140D01*
X127754380Y-82781140D02*
X127855980Y-83278980D01*
X127855980Y-83278980D02*
X127855980Y-84079080D01*
X127855980Y-84079080D02*
X127754380Y-84579460D01*
X127754380Y-84579460D02*
X127556260Y-84879180D01*
X127556260Y-84879180D02*
X127154940Y-85079840D01*
X127154940Y-85079840D02*
X126756160Y-85079840D01*
X126756160Y-85079840D02*
X126354840Y-84780120D01*
X126354840Y-84780120D02*
X126154180Y-84079080D01*
X126154180Y-84079080D02*
X126154180Y-83278980D01*
X126154180Y-83278980D02*
X126354840Y-82880200D01*
X126354840Y-82880200D02*
X126555500Y-82679540D01*
X126555500Y-82679540D02*
X126954280Y-82478880D01*
X127055880Y-82179160D02*
X127454660Y-82280760D01*
X127454660Y-82280760D02*
X127754380Y-82379820D01*
X127754380Y-82379820D02*
X128054100Y-82880200D01*
X128054100Y-82880200D02*
X128155700Y-83479640D01*
X128155700Y-83479640D02*
X128054100Y-84579460D01*
X128054100Y-84579460D02*
X127754380Y-85178900D01*
X127754380Y-85178900D02*
X127154940Y-85379560D01*
X127154940Y-85379560D02*
X126453900Y-85280500D01*
X126453900Y-85280500D02*
X126055120Y-84681060D01*
X126055120Y-84681060D02*
X125956060Y-83980020D01*
X125956060Y-83980020D02*
X125956060Y-83278980D01*
X125956060Y-83278980D02*
X126154180Y-82679540D01*
X126154180Y-82679540D02*
X126555500Y-82280760D01*
X126555500Y-82280760D02*
X127055880Y-82179160D01*
X123654820Y-77081380D02*
X124155200Y-76680060D01*
X124155200Y-76680060D02*
X124553980Y-76179680D01*
X124553980Y-76179680D02*
X124754640Y-75679300D01*
X124754640Y-75679300D02*
X124754640Y-74980800D01*
X124754640Y-74980800D02*
X124653040Y-74381360D01*
X124653040Y-74381360D02*
X124254260Y-73779380D01*
X124254260Y-73779380D02*
X123454160Y-73179940D01*
X123454160Y-73179940D02*
X122654060Y-73080880D01*
X122654060Y-73080880D02*
X121953020Y-73080880D01*
X121953020Y-73080880D02*
X121254520Y-73581260D01*
X121254520Y-73581260D02*
X120754140Y-74279760D01*
X120754140Y-74279760D02*
X120553480Y-74879200D01*
X120553480Y-74879200D02*
X120553480Y-75580240D01*
X120553480Y-75580240D02*
X120853200Y-76380340D01*
X120853200Y-76380340D02*
X121353580Y-76880720D01*
X121353580Y-76880720D02*
X121653300Y-77081380D01*
X121653300Y-77180440D02*
X120904000Y-79430880D01*
X120904000Y-79430880D02*
X120053100Y-78981300D01*
X120053100Y-78981300D02*
X118755160Y-79979520D01*
X118755160Y-79979520D02*
X117754400Y-78879700D01*
X117754400Y-78879700D02*
X118653560Y-77579220D01*
X118653560Y-77579220D02*
X118153180Y-76281280D01*
X118153180Y-76281280D02*
X118153180Y-76080620D01*
X118153180Y-76080620D02*
X116552980Y-75780900D01*
X116552980Y-75780900D02*
X116552980Y-74279760D01*
X116552980Y-74279760D02*
X118153180Y-74081640D01*
X118153180Y-74081640D02*
X118755160Y-72679560D01*
X118755160Y-72679560D02*
X117853460Y-71280020D01*
X117853460Y-71280020D02*
X118953280Y-70279260D01*
X118953280Y-70279260D02*
X120253760Y-71180960D01*
X120253760Y-71180960D02*
X121455180Y-70680580D01*
X121455180Y-70680580D02*
X121853960Y-69080380D01*
X121853960Y-69080380D02*
X123355100Y-69080380D01*
X123355100Y-69080380D02*
X123654820Y-70680580D01*
X123654820Y-70680580D02*
X124955300Y-71180960D01*
X124955300Y-71180960D02*
X126354840Y-70180200D01*
X126354840Y-70180200D02*
X127454660Y-71280020D01*
X127454660Y-71280020D02*
X126453900Y-72580500D01*
X126453900Y-72580500D02*
X127154940Y-74081640D01*
X127154940Y-74081640D02*
X128755140Y-74279760D01*
X128755140Y-74279760D02*
X128854200Y-75679300D01*
X128854200Y-75679300D02*
X127254000Y-75981560D01*
X127254000Y-75981560D02*
X126654560Y-77579220D01*
X126654560Y-77579220D02*
X127553720Y-78879700D01*
X127553720Y-78879700D02*
X126552960Y-79979520D01*
X126552960Y-79979520D02*
X125255020Y-79080360D01*
X125255020Y-79080360D02*
X124553980Y-79380080D01*
X124553980Y-79380080D02*
X123654820Y-77081380D01*
M02*
